<svg width="190" height="40" viewBox="0 0 190 40" fill="none" xmlns="http://www.w3.org/2000/svg">
<rect x="150" width="40" height="40" rx="8" fill="#F3F6F7"/>
<path d="M164.906 27V15.3203H161.273V27H164.906ZM163.07 13.7578C164.242 13.7578 165.18 12.7812 165.18 11.6094C165.18 10.4766 164.242 9.53906 163.07 9.53906C161.938 9.53906 161 10.4766 161 11.6094C161 12.7812 161.938 13.7578 163.07 13.7578ZM178.461 27H178.5V20.5938C178.5 17.4688 177.797 15.0469 174.125 15.0469C172.367 15.0469 171.195 16.0234 170.688 16.9219H170.648V15.3203H167.172V27H170.805V21.2188C170.805 19.6953 171.078 18.25 172.953 18.25C174.828 18.25 174.867 19.9688 174.867 21.3359V27H178.461Z" fill="#144679"/>
<rect x="100" width="40" height="40" rx="8" fill="#F3F6F7"/>
<path d="M119.75 15.0078C117.25 15.0078 115.258 17.0391 115.258 19.5C115.258 22 117.25 23.9922 119.75 23.9922C122.211 23.9922 124.242 22 124.242 19.5C124.242 17.0391 122.211 15.0078 119.75 15.0078ZM119.75 22.4297C118.148 22.4297 116.82 21.1406 116.82 19.5C116.82 17.8984 118.109 16.6094 119.75 16.6094C121.352 16.6094 122.641 17.8984 122.641 19.5C122.641 21.1406 121.352 22.4297 119.75 22.4297ZM125.453 14.8516C125.453 14.2656 124.984 13.7969 124.398 13.7969C123.812 13.7969 123.344 14.2656 123.344 14.8516C123.344 15.4375 123.812 15.9062 124.398 15.9062C124.984 15.9062 125.453 15.4375 125.453 14.8516ZM128.422 15.9062C128.344 14.5 128.031 13.25 127.016 12.2344C126 11.2188 124.75 10.9062 123.344 10.8281C121.898 10.75 117.562 10.75 116.117 10.8281C114.711 10.9062 113.5 11.2188 112.445 12.2344C111.43 13.25 111.117 14.5 111.039 15.9062C110.961 17.3516 110.961 21.6875 111.039 23.1328C111.117 24.5391 111.43 25.75 112.445 26.8047C113.5 27.8203 114.711 28.1328 116.117 28.2109C117.562 28.2891 121.898 28.2891 123.344 28.2109C124.75 28.1328 126 27.8203 127.016 26.8047C128.031 25.75 128.344 24.5391 128.422 23.1328C128.5 21.6875 128.5 17.3516 128.422 15.9062ZM126.547 24.6562C126.273 25.4375 125.648 26.0234 124.906 26.3359C123.734 26.8047 121 26.6875 119.75 26.6875C118.461 26.6875 115.727 26.8047 114.594 26.3359C113.812 26.0234 113.227 25.4375 112.914 24.6562C112.445 23.5234 112.562 20.7891 112.562 19.5C112.562 18.25 112.445 15.5156 112.914 14.3438C113.227 13.6016 113.812 13.0156 114.594 12.7031C115.727 12.2344 118.461 12.3516 119.75 12.3516C121 12.3516 123.734 12.2344 124.906 12.7031C125.648 12.9766 126.234 13.6016 126.547 14.3438C127.016 15.5156 126.898 18.25 126.898 19.5C126.898 20.7891 127.016 23.5234 126.547 24.6562Z" fill="url(#paint0_linear_2023_94)"/>
<rect x="50" width="40" height="40" rx="8" fill="#F3F6F7"/>
<path d="M77.9297 15.4375C78.7109 14.8516 79.4141 14.1484 79.9609 13.3281C79.2578 13.6406 78.4375 13.875 77.6172 13.9531C78.4766 13.4453 79.1016 12.6641 79.4141 11.6875C78.6328 12.1562 77.7344 12.5078 76.8359 12.7031C76.0547 11.8828 75 11.4141 73.8281 11.4141C71.5625 11.4141 69.7266 13.25 69.7266 15.5156C69.7266 15.8281 69.7656 16.1406 69.8438 16.4531C66.4453 16.2578 63.3984 14.6172 61.3672 12.1562C61.0156 12.7422 60.8203 13.4453 60.8203 14.2266C60.8203 15.6328 61.5234 16.8828 62.6562 17.625C61.9922 17.5859 61.3281 17.4297 60.7812 17.1172V17.1562C60.7812 19.1484 62.1875 20.7891 64.0625 21.1797C63.75 21.2578 63.3594 21.3359 63.0078 21.3359C62.7344 21.3359 62.5 21.2969 62.2266 21.2578C62.7344 22.8984 64.2578 24.0703 66.0547 24.1094C64.6484 25.2031 62.8906 25.8672 60.9766 25.8672C60.625 25.8672 60.3125 25.8281 60 25.7891C61.7969 26.9609 63.9453 27.625 66.2891 27.625C73.8281 27.625 77.9297 21.4141 77.9297 15.9844C77.9297 15.7891 77.9297 15.6328 77.9297 15.4375Z" fill="#1C9CEA"/>
<rect width="40" height="40" rx="8" fill="#F3F6F7"/>
<path d="M24.8984 20.75L25.4453 17.1562H21.9688V14.8125C21.9688 13.7969 22.4375 12.8594 24 12.8594H25.6016V9.77344C25.6016 9.77344 24.1562 9.5 22.7891 9.5C19.9375 9.5 18.0625 11.2578 18.0625 14.3828V17.1562H14.8594V20.75H18.0625V29.5H21.9688V20.75H24.8984Z" fill="#1773EA"/>
<defs>
<linearGradient id="paint0_linear_2023_94" x1="120" y1="8" x2="120" y2="31" gradientUnits="userSpaceOnUse">
<stop stop-color="#515ECF"/>
<stop offset="0.369792" stop-color="#C53184"/>
<stop offset="0.75" stop-color="#F3673A"/>
<stop offset="1" stop-color="#DB2E7A"/>
</linearGradient>
</defs>
</svg>
